<?xml version="1.0" encoding="UTF-8"?>
<svg version="1.1" xmlns="http://www.w3.org/2000/svg" width="464" height="393">
<path d="M0 0 C0.6775882 -0.00641296 1.3551764 -0.01282591 2.05329758 -0.0194332 C4.3225895 -0.03602921 6.59082504 -0.02418824 8.86013412 -0.01244164 C10.50398794 -0.01848332 12.14783614 -0.02626161 13.79167438 -0.03562677 C18.30813695 -0.05622268 22.82428265 -0.0518142 27.34077144 -0.04326558 C32.21210339 -0.03833749 37.08335842 -0.05635156 41.95466232 -0.07134056 C51.4983887 -0.09685788 61.0420026 -0.10041896 70.58575734 -0.09574004 C78.34345573 -0.09217554 86.10111994 -0.09566899 93.85881424 -0.10418892 C94.96248321 -0.1053793 96.06615217 -0.10656968 97.20326565 -0.10779613 C99.44532214 -0.11021961 101.68737863 -0.11264788 103.9294351 -0.11508088 C124.96315072 -0.13684151 145.99680224 -0.13250268 167.03052148 -0.12031119 C186.27108126 -0.10997528 205.51143846 -0.13247547 224.75195816 -0.17050762 C244.50709238 -0.20925762 264.26213075 -0.22577742 284.01730323 -0.21826112 C295.10868096 -0.21443556 306.19988632 -0.21942667 317.29123306 -0.2476902 C326.73495605 -0.27151142 336.17840059 -0.27433529 345.62212738 -0.25010987 C350.43967287 -0.23832683 355.25670901 -0.23614726 360.07422066 -0.26011467 C364.4874727 -0.28181542 368.89978966 -0.27564835 373.31299779 -0.2475913 C374.90652506 -0.24229241 376.5001254 -0.24704665 378.09358099 -0.26306303 C387.55319107 -0.35151896 394.42789866 0.51243992 402.05831528 6.50895119 C402.93990338 7.13669994 402.93990338 7.13669994 403.83930135 7.77713048 C413.36214801 14.96137069 418.58366642 29.39412628 420.64596653 40.74272919 C422.3644341 53.18990178 422.3334086 65.54813392 422.3012352 78.09537697 C422.30231028 80.5452371 422.30425229 82.99509698 422.30698776 85.44495583 C422.31131107 91.38050609 422.30642662 97.31600527 422.29713746 103.2515458 C422.28664348 110.21441634 422.28682675 117.17727537 422.28731004 124.14015232 C422.28780955 136.6148222 422.27869001 149.08946638 422.26412582 161.56412697 C422.25013209 173.55697029 422.24295132 185.54979098 422.24361801 197.54264259 C422.24365797 198.27710134 422.24369792 199.01156009 422.24373909 199.76827516 C422.24377945 200.50168476 422.2438198 201.23509436 422.24386138 201.9907285 C422.24456086 215.76695087 422.23859526 229.54316394 422.22970816 243.31938324 C422.22716398 247.44868612 422.22577213 251.57798733 422.22537927 255.70729095 C422.22280086 281.27389257 422.21506568 306.84368462 421.78355849 332.40734458 C421.75205878 334.3480862 421.72486402 336.2889038 421.70255315 338.22977281 C421.46990393 357.36637191 419.36976808 375.65185576 406.05831528 390.50895119 C405.67239863 391.03376587 405.28648198 391.55858056 404.88887089 392.09929872 C402.07034949 394.26975211 399.63866008 393.89292918 396.12098789 393.90323448 C395.40742944 393.90939238 394.69387098 393.91555028 393.95868954 393.92189479 C391.54918353 393.93896242 389.14018886 393.93452639 386.73063278 393.93027687 C384.99307335 393.93802457 383.25551927 393.94706314 381.51797265 393.95728707 C376.72870461 393.98154574 371.93957133 393.98686846 367.15024912 393.98907948 C361.99055446 393.9946228 356.8309302 394.01726065 351.67127609 394.03748512 C340.38203023 394.07827193 329.09281628 394.09631516 317.803509 394.1095171 C310.75712736 394.11779862 303.71075811 394.13050966 296.66438484 394.14402962 C277.16310303 394.1806133 257.66183117 394.21150956 238.16051579 394.22165489 C236.9118017 394.22231359 235.66308761 394.22297229 234.3765337 394.22365095 C233.12479362 394.22430578 231.87305354 394.22496061 230.58338195 394.22563529 C228.04678746 394.2269657 225.51019297 394.22830539 222.97359848 394.22965431 C221.08623181 394.23065075 221.08623181 394.23065075 219.16073652 394.23166731 C198.77075872 394.24351237 178.3811025 394.29587496 157.99124894 394.36573288 C137.06779286 394.43684151 116.14449821 394.474259 95.22091931 394.47775865 C83.46881463 394.48051086 71.71712883 394.49781572 59.96513939 394.55221748 C49.95798384 394.59837807 39.95137656 394.61380787 29.94413481 394.58900318 C24.83701266 394.57726734 19.73099501 394.580146 14.62400818 394.62217522 C9.94827707 394.6603037 5.27448346 394.6568859 0.59875622 394.62040308 C-1.09242076 394.61451583 -2.78373355 394.62384473 -4.47471949 394.64993617 C-17.05783822 394.83179456 -17.05783822 394.83179456 -21.66205752 391.59869623 C-23.74340166 389.32714028 -25.36539509 387.15081182 -26.94168472 384.50895119 C-27.44607864 383.6799744 -27.95047255 382.85099761 -28.47015113 381.99690032 C-38.76679476 364.05082418 -36.09423496 339.94704103 -36.08706844 320.0769887 C-36.08686225 316.50224778 -36.09240363 312.92751465 -36.09712601 309.35277748 C-36.10538527 302.36871651 -36.10817866 295.38466399 -36.10873839 288.40059854 C-36.10921563 282.71841629 -36.11128073 277.03623679 -36.11443901 271.3540554 C-36.12323132 255.20422162 -36.12786042 239.05439445 -36.12710854 222.90455826 C-36.12706858 222.03634191 -36.12702862 221.16812556 -36.12698746 220.27359962 C-36.12694658 219.40431007 -36.1269057 218.53502051 -36.12686358 217.63938884 C-36.12645712 203.55155465 -36.13603034 189.46374719 -36.15012582 175.37592073 C-36.16452227 160.8716527 -36.17139427 146.36739769 -36.17053205 131.86312234 C-36.17020129 123.73563021 -36.17289512 115.60816612 -36.1837101 107.48068047 C-36.19285808 100.56233728 -36.19495517 93.64403488 -36.18820067 86.72568823 C-36.18495752 83.20353593 -36.18479805 79.68146168 -36.19355392 76.15931702 C-36.29339784 26.96646234 -36.29339784 26.96646234 -20.47684097 11.02457619 C-8.51083338 0.0122504 -8.51083338 0.0122504 0 0 Z M114.05831528 109.50895119 C114.20269028 110.25016212 114.34706528 110.99137306 114.49581528 111.75504494 C116.59855021 123.68514524 119.13749513 138.88152715 112.05831528 149.50895119 C107.96099785 154.45641404 103.52701861 159.0167364 99.00753403 163.57926369 C96.17614952 166.59310017 95.07857245 167.9904771 94.91378403 172.20816994 C94.96147934 173.29742775 95.00917465 174.38668556 95.05831528 175.50895119 C94.10569809 175.60691994 93.1530809 175.70488869 92.17159653 175.80582619 C90.91733871 175.95535744 89.6630809 176.10488869 88.37081528 176.25895119 C86.5087645 176.46777931 86.5087645 176.46777931 84.60909653 176.68082619 C80.60353345 177.61501692 78.93681988 178.60507466 76.05831528 181.50895119 C75.24993142 184.51650948 75.24993142 184.51650948 75.28097153 187.89176369 C75.24294418 189.14215431 75.20491684 190.39254494 75.16573715 191.68082619 C75.15091293 192.98535744 75.13608871 194.28988869 75.12081528 195.63395119 C75.07892075 196.91527931 75.03702621 198.19660744 74.99386215 199.51676369 C74.45655968 212.21542195 74.45655968 212.21542195 79.37081528 223.44645119 C80.25769028 224.12707619 81.14456528 224.80770119 82.05831528 225.50895119 C82.82144028 226.12770119 83.58456528 226.74645119 84.37081528 227.38395119 C88.26482992 229.01400383 90.93983382 228.27680366 95.05831528 227.50895119 C96.54331528 233.44895119 96.54331528 233.44895119 98.05831528 239.50895119 C99.37831528 239.83895119 100.69831528 240.16895119 102.05831528 240.50895119 C102.79854849 242.48290641 103.44592629 244.49166981 104.05831528 246.50895119 C106.47155827 251.9129654 109.5241002 256.18609843 113.55831528 260.50895119 C122.16216439 269.75701529 125.19011188 278.52876831 125.42159653 290.99332619 C126.3621125 294.70922979 127.77244064 295.54806766 131.05831528 297.50895119 C134.51725268 297.99655088 137.90788246 297.83530559 141.39034653 297.68082619 C142.38209381 297.65297035 143.37384109 297.62511452 144.39564133 297.59641457 C147.55498592 297.50324234 150.71248669 297.38148809 153.87081528 297.25895119 C156.01593829 297.19065681 158.16112159 297.1242288 160.30636215 297.05973244 C165.55790441 296.89776789 170.80822314 296.71234412 176.05831528 296.50895119 C176.51174301 295.54005959 176.96517075 294.57116798 177.43233871 293.57291603 C179.05831528 290.50895119 179.05831528 290.50895119 181.07394028 289.48551369 C181.81128403 289.36949806 182.54862778 289.25348244 183.30831528 289.13395119 C184.09593246 289.00504494 184.88354965 288.87613869 185.69503403 288.74332619 C188.85569347 288.42987236 191.88469647 288.37390358 195.05831528 288.50895119 C196.54331528 292.46895119 196.54331528 292.46895119 198.05831528 296.50895119 C202.01831528 296.50895119 205.97831528 296.50895119 210.05831528 296.50895119 C210.05831528 293.53895119 210.05831528 290.56895119 210.05831528 287.50895119 C208.07831528 287.50895119 206.09831528 287.50895119 204.05831528 287.50895119 C204.05831528 283.54895119 204.05831528 279.58895119 204.05831528 275.50895119 C191.84831528 275.50895119 179.63831528 275.50895119 167.05831528 275.50895119 C167.05831528 279.46895119 167.05831528 283.42895119 167.05831528 287.50895119 C156.49831528 287.50895119 145.93831528 287.50895119 135.05831528 287.50895119 C135.38831528 284.53895119 135.71831528 281.56895119 136.05831528 278.50895119 C135.45615059 268.28648869 130.34067163 261.93256802 123.87081528 254.44645119 C113.80389935 242.76221628 106.86899735 230.78301801 101.05831528 216.50895119 C95.77831528 216.50895119 90.49831528 216.50895119 85.05831528 216.50895119 C85.27487778 214.7622715 85.49144028 213.01559181 85.71456528 211.21598244 C85.99597236 208.91782458 86.27721371 206.61964643 86.55831528 204.32145119 C86.70140121 203.17096291 86.84448715 202.02047462 86.99190903 200.83512306 C87.19493637 199.16739845 87.19493637 199.16739845 87.40206528 197.46598244 C87.52774887 196.44480324 87.65343246 195.42362404 87.78292465 194.37150002 C88.03728595 191.72754058 88.10947248 189.16273129 88.05831528 186.50895119 C89.27519028 186.38520119 90.49206528 186.26145119 91.74581528 186.13395119 C97.73092514 185.44471729 97.73092514 185.44471729 102.43575668 181.92179298 C106.04546173 177.1134363 109.01182633 172.19832713 111.80831528 166.88395119 C116.28417113 158.58654892 121.4293166 151.05397441 127.05831528 143.50895119 C130.11903689 138.91786876 129.01329924 134.78826395 128.05831528 129.50895119 C126.7173939 125.0410913 125.14624228 120.68480519 123.05831528 116.50895119 C127.23774262 117.63852614 130.47723165 119.37535549 134.12081528 121.63395119 C140.40689126 125.20125602 145.99308942 125.11550476 153.05831528 124.50895119 C152.89109843 120.24492147 152.58806264 118.09446143 149.68331528 114.88395119 C138.6861942 106.80334154 126.62168224 103.92523254 114.05831528 109.50895119 Z M170.05831528 119.50895119 C170.05831528 122.14895119 170.05831528 124.78895119 170.05831528 127.50895119 C174.01831528 127.50895119 177.97831528 127.50895119 182.05831528 127.50895119 C182.05831528 124.86895119 182.05831528 122.22895119 182.05831528 119.50895119 C178.09831528 119.50895119 174.13831528 119.50895119 170.05831528 119.50895119 Z M195.05831528 119.50895119 C195.05831528 122.14895119 195.05831528 124.78895119 195.05831528 127.50895119 C199.01831528 127.50895119 202.97831528 127.50895119 207.05831528 127.50895119 C207.05831528 124.86895119 207.05831528 122.22895119 207.05831528 119.50895119 C203.09831528 119.50895119 199.13831528 119.50895119 195.05831528 119.50895119 Z M220.05831528 125.50895119 C219.06831528 128.47895119 218.07831528 131.44895119 217.05831528 134.50895119 C222.99831528 135.49895119 222.99831528 135.49895119 229.05831528 136.50895119 C231.24401062 131.94224031 231.24401062 131.94224031 231.05831528 128.50895119 C227.42831528 127.51895119 223.79831528 126.52895119 220.05831528 125.50895119 Z M242.05831528 137.50895119 C241.06831528 140.47895119 240.07831528 143.44895119 239.05831528 146.50895119 C241.40365478 147.27851255 241.40365478 147.27851255 244.05831528 147.50895119 C246.03410267 146.61833903 246.03410267 146.61833903 247.05831528 144.50895119 C247.30867298 140.88359143 247.30867298 140.88359143 247.05831528 137.50895119 C245.40831528 137.50895119 243.75831528 137.50895119 242.05831528 137.50895119 Z M262.93331528 159.50895119 C262.31456528 160.16895119 261.69581528 160.82895119 261.05831528 161.50895119 C261.38831528 162.16895119 261.71831528 162.82895119 262.05831528 163.50895119 C263.70831528 161.52895119 265.35831528 159.54895119 267.05831528 157.50895119 C264.81468954 157.28049629 264.81468954 157.28049629 262.93331528 159.50895119 Z M270.05831528 182.50895119 C270.71831528 185.14895119 271.37831528 187.78895119 272.05831528 190.50895119 C274.03831528 190.50895119 276.01831528 190.50895119 278.05831528 190.50895119 C277.72831528 188.52895119 277.39831528 186.54895119 277.05831528 184.50895119 C276.39831528 184.50895119 275.73831528 184.50895119 275.05831528 184.50895119 C275.05831528 182.85895119 275.05831528 181.20895119 275.05831528 179.50895119 C273.09008642 179.50895119 271.55302983 181.35175283 270.05831528 182.50895119 Z M245.05831528 212.50895119 C243.85658411 215.31513845 243.32256554 218.13415798 242.80831528 221.13395119 C242.65266098 221.92849709 242.49700668 222.72304298 242.33663559 223.54166603 C241.88746241 225.8605108 241.46995355 228.18319496 241.05831528 230.50895119 C240.83144028 231.70520119 240.60456528 232.90145119 240.37081528 234.13395119 C239.9104574 236.5891932 239.47073419 239.04529083 239.05831528 241.50895119 C238.21269028 241.75645119 237.36706528 242.00395119 236.49581528 242.25895119 C232.32480401 243.66569852 232.32480401 243.66569852 226.05831528 247.50895119 C226.05831528 263.67895119 226.05831528 279.84895119 226.05831528 296.50895119 C252.78831528 296.50895119 279.51831528 296.50895119 307.05831528 296.50895119 C307.05831528 279.34895119 307.05831528 262.18895119 307.05831528 244.50895119 C302.76831528 244.50895119 298.47831528 244.50895119 294.05831528 244.50895119 C294.38831528 242.85895119 294.71831528 241.20895119 295.05831528 239.50895119 C295.76857859 230.06244918 296.20344483 221.34361758 290.05831528 213.50895119 C283.84767786 207.17437643 275.40230086 203.38316778 266.55831528 203.00895119 C258.59554478 203.33557119 250.30704314 206.24383707 245.05831528 212.50895119 Z " fill="#161616" transform="translate(39.94168472290039,-0.5089511871337891)"/>
<path d="M0 0 C19.8 0 39.6 0 60 0 C60 11.55 60 23.1 60 35 C40.2 35 20.4 35 0 35 C0 23.45 0 11.9 0 0 Z " fill="#2A2A2A" transform="translate(278,252)"/>
<path d="M0 0 C6.92890998 9.52725122 6 16.51252628 6 29 C-5.88 29 -17.76 29 -30 29 C-30.12375 25.535 -30.2475 22.07 -30.375 18.5 C-30.42962402 17.42427734 -30.48424805 16.34855469 -30.54052734 15.24023438 C-30.64872283 8.93464814 -29.64034433 5.34395117 -25.56176758 0.4921875 C-19.3793427 -5.41479716 -6.69139904 -4.41632337 0 0 Z " fill="#7C7C7C" transform="translate(320,215)"/>
<path d="M0 0 C0.33 0 0.66 0 1 0 C1.33 1.65 1.66 3.3 2 5 C2.33 4.67 2.66 4.34 3 4 C10.41176471 4.70588235 10.41176471 4.70588235 13 6 C13 8.31 13 10.62 13 13 C14.98 13 16.96 13 19 13 C19.66 15.97 20.32 18.94 21 22 C22.65 22 24.3 22 26 22 C26.6509259 23.24735567 27.29551669 24.49801832 27.9375 25.75 C28.47697266 26.79414063 28.47697266 26.79414063 29.02734375 27.859375 C31.12226077 32.46987512 31.12404621 36.74108538 31.0625 41.75 C31.05798828 42.44738281 31.05347656 43.14476562 31.04882812 43.86328125 C31.0371002 45.57555803 31.01916653 47.28779033 31 49 C30.67 48.34 30.34 47.68 30 47 C29.34 47 28.68 47 28 47 C27.505 45.02 27.505 45.02 27 43 C26.01 43.66 25.02 44.32 24 45 C24.33 47.64 24.66 50.28 25 53 C26.98 53 28.96 53 31 53 C31.33 52.01 31.66 51.02 32 50 C32 51.32 32 52.64 32 54 C30.02 54 28.04 54 26 54 C26 54.66 26 55.32 26 56 C20.3856009 54.43551329 15.13189662 52.83604813 10 50 C10.32742188 48.865625 10.65484375 47.73125 10.9921875 46.5625 C12.13586595 41.98778621 12.23072042 37.69236013 12.125 33 C12.11597656 32.22527344 12.10695313 31.45054687 12.09765625 30.65234375 C12.07439388 28.76809157 12.0385364 26.88400168 12 25 C9.525 26.485 9.525 26.485 7 28 C7 24.04 7 20.08 7 16 C3.04 16 -0.92 16 -5 16 C-4.67 14.68 -4.34 13.36 -4 12 C-4.66 11.34 -5.32 10.68 -6 10 C-5.195625 9.649375 -4.39125 9.29875 -3.5625 8.9375 C-0.6132233 7.14332716 -0.6132233 7.14332716 -0.1875 3.3125 C-0.125625 2.219375 -0.06375 1.12625 0 0 Z M15.875 22 C15.25625 22.66 14.6375 23.32 14 24 C14.33 24.66 14.66 25.32 15 26 C16.65 24.02 18.3 22.04 20 20 C17.75637427 19.7715451 17.75637427 19.7715451 15.875 22 Z " fill="#555555" transform="translate(287,137)"/>
<path d="M0 0 C0 6.27 0 12.54 0 19 C-9.24 19 -18.48 19 -28 19 C-25.06225276 11.16600737 -22.71049676 7.61496801 -17 2 C-16.43023437 1.41089844 -15.86046875 0.82179687 -15.2734375 0.21484375 C-10.01966737 -4.45379085 -6.16533464 -2.44924253 0 0 Z " fill="#131313" transform="translate(322,221)"/>
<path d="M0 0 C0.33 0 0.66 0 1 0 C1.33 1.65 1.66 3.3 2 5 C2.33 4.67 2.66 4.34 3 4 C10.41176471 4.70588235 10.41176471 4.70588235 13 6 C13 8.31 13 10.62 13 13 C14.98 13 16.96 13 19 13 C20.20478715 16.35963503 21.02030772 19.41568708 21 23 C19.16363313 26.22911703 16.86161563 28.64492323 14 31 C13.67 31 13.34 31 13 31 C12.67 29.02 12.34 27.04 12 25 C9.525 26.485 9.525 26.485 7 28 C7 24.04 7 20.08 7 16 C3.04 16 -0.92 16 -5 16 C-4.67 14.68 -4.34 13.36 -4 12 C-4.66 11.34 -5.32 10.68 -6 10 C-5.195625 9.649375 -4.39125 9.29875 -3.5625 8.9375 C-0.6132233 7.14332716 -0.6132233 7.14332716 -0.1875 3.3125 C-0.125625 2.219375 -0.06375 1.12625 0 0 Z M15.875 22 C15.25625 22.66 14.6375 23.32 14 24 C14.33 24.66 14.66 25.32 15 26 C16.65 24.02 18.3 22.04 20 20 C17.75637427 19.7715451 17.75637427 19.7715451 15.875 22 Z " fill="#727272" transform="translate(287,137)"/>
<path d="M0 0 C3.05110257 1.5529564 3.81554835 3.89935152 5.26953125 6.93359375 C5.80191406 8.01511719 6.33429688 9.09664062 6.8828125 10.2109375 C7.23730469 11.13003906 7.59179688 12.04914063 7.95703125 12.99609375 C6.18839472 16.5333668 2.05224883 17.55905562 -1.41796875 19.18359375 C-2.19914063 19.56451172 -2.9803125 19.94542969 -3.78515625 20.33789062 C-4.53796875 20.69302734 -5.29078125 21.04816406 -6.06640625 21.4140625 C-6.75653809 21.74172607 -7.44666992 22.06938965 -8.15771484 22.40698242 C-10.04296875 22.99609375 -10.04296875 22.99609375 -13.04296875 21.99609375 C-17.08808891 16.93969355 -17.08808891 16.93969355 -16.953125 14.1171875 C-15.63770635 11.05164103 -13.60286075 9.19833041 -11.23046875 6.87109375 C-10.35777344 6.00226563 -9.48507813 5.1334375 -8.5859375 4.23828125 C-3.77092892 -0.00721019 -3.77092892 -0.00721019 0 0 Z " fill="#282828" transform="translate(140.04296875,239.00390625)"/>
<path d="M0 0 C0.33 0.99 0.66 1.98 1 3 C-0.43359375 5.04296875 -0.43359375 5.04296875 -2.4375 7.1875 C-3.09621094 7.90292969 -3.75492187 8.61835938 -4.43359375 9.35546875 C-4.95050781 9.89816406 -5.46742188 10.44085938 -6 11 C-6.33 10.01 -6.66 9.02 -7 8 C-5.56640625 5.95703125 -5.56640625 5.95703125 -3.5625 3.8125 C-2.90378906 3.09707031 -2.24507813 2.38164062 -1.56640625 1.64453125 C-1.04949219 1.10183594 -0.53257812 0.55914062 0 0 Z " fill="#828282" transform="translate(307,157)"/>
<path d="M0 0 C-1.49097658 3.7952131 -3.75700849 5.61042731 -7 8 C-4.18918919 0 -4.18918919 0 0 0 Z " fill="#ACACAC" transform="translate(298,214)"/>
</svg>
